+8_ID_stride3.mot
nRows=8
nColumns=38

name +8_ID_stride3.mot
datacolumns 38
datarows 8
range 1.2750000000 1.3100000000
endheader
time	pelvis_tilt_moment	pelvis_list_moment	pelvis_rotation_moment	pelvis_tx_force	pelvis_ty_force	pelvis_tz_force	hip_flexion_r_moment	hip_adduction_r_moment	hip_rotation_r_moment	knee_angle_r_moment	ankle_angle_r_moment	subtalar_angle_r_moment	mtp_angle_r_moment	hip_flexion_l_moment	hip_adduction_l_moment	hip_rotation_l_moment	knee_angle_l_moment	ankle_angle_l_moment	subtalar_angle_l_moment	mtp_angle_l_moment	lumbar_extension_moment	lumbar_bending_moment	lumbar_rotation_moment	arm_flex_r_moment	arm_add_r_moment	arm_rot_r_moment	elbow_flex_r_moment	pro_sup_r_moment	wrist_flex_r_moment	wrist_dev_r_moment	arm_flex_l_moment	arm_add_l_moment	arm_rot_l_moment	elbow_flex_l_moment	pro_sup_l_moment	wrist_flex_l_moment	wrist_dev_l_moment
        1.2750000000	      -38.1541184999	      -86.7615497357	      -48.3787523649	       34.9457116951	      -81.0798621908	      167.4948677419	     -178.1738643569	      -26.6083387881	       -3.2464375380	      -86.9009548761	       -2.8363078325	       -0.7715014908	       -0.0738258487	       94.3491518934	      -53.4881856667	       12.8289154051	       33.0773964424	        3.6631034966	       -1.2113078847	        0.1064174419	       -8.6355987268	        3.3090336872	       -9.7614825198	       -2.3581392685	       -2.1470226516	       -1.3836782706	       -0.8398782649	       -0.0216025483	       -0.1491693738	        0.0545911159	       -0.8078752689	        2.1879384509	        1.7245198140	       -0.8616248149	        0.0600876345	        0.1490908918	        0.1188795815	
        1.2800000000	      -11.2069426958	      -87.1488003301	      -46.5675958814	       11.3775980118	      117.9777237739	      230.0463436230	     -162.6242933291	      -26.5647613376	       -1.6097596031	      -83.4837105026	       -1.6563626460	       -0.9632974299	        0.0082046879	       82.6811262262	      -46.7327719279	       13.9085261205	       32.7788085677	        4.0234079181	       -1.2382281739	        0.1528075998	        5.6961138134	       -9.2217339462	      -10.3850864059	       -3.7717935775	       -1.8925199519	       -1.1455898262	       -0.4718493918	       -0.0206095409	       -0.1211668557	        0.0401988023	       -2.4933810649	        2.0888191783	        1.8575457116	       -0.6537765603	        0.0591091699	        0.1708093774	        0.1160383709	
        1.2850000000	       28.2790296599	        0.5134921707	      -28.4820989040	       -4.7868416610	      257.5048270972	      226.5765492642	      -81.2888630954	      -35.3767866758	        6.0342661230	      -33.5069975011	       11.0136682069	        6.9216130641	        0.1015333923	       72.4506574578	      -38.8197631073	       14.2834890416	       31.5605849632	        4.3757401631	       -1.2639678121	        0.1973852178	       27.5367629816	      -23.7001368986	       -9.0281583101	       -4.9326209291	       -1.1294800787	       -0.5636832896	        0.3005691344	       -0.0172685571	       -0.0495155852	       -0.0077159784	       -4.2734719046	        1.6425231485	        1.7857430558	       -0.0387216299	        0.0404276363	        0.1784875854	        0.0624741534	
        1.2900000000	       62.8667640068	       40.1394798740	      -12.7663699187	      -28.4595322786	      395.5969164528	      215.9245939270	      -51.0821589345	      -46.6170581654	       16.0838213066	      -15.9328239994	        9.6023611939	       11.8914126766	        0.1959498761	       65.5594556541	      -30.9274201020	       14.0051964528	       30.1110555094	        4.7011792374	       -1.2878041780	        0.2365003989	       51.1211952969	      -37.2137102277	       -5.9278940357	       -5.4945801343	       -0.1281081499	        0.1689293663	        1.3080019372	       -0.0138457038	        0.0429019442	       -0.0756888941	       -5.7446164620	        1.0565879600	        1.4818043194	        0.8076127624	        0.0120851633	        0.1672395182	       -0.0181906947	
        1.2950000000	       87.9300534331	       76.9872294917	        4.7857068605	      -39.5698313935	      445.1821190531	      165.5300737322	      -32.6634331696	      -58.1488718796	       27.0463643556	       -2.2315737486	        1.8835843634	       17.5348776855	        0.2791553290	       64.9051687187	      -24.1186480123	       13.3522360397	       28.9624431773	        4.9854538441	       -1.3054313238	        0.2672945297	       70.5536887621	      -46.6632636471	       -1.6337231773	       -5.2189746364	        0.8925215275	        0.8998542166	        2.3333759990	       -0.0106791989	        0.1371889572	       -0.1482480667	       -6.5119236919	        0.4578073167	        1.0316178842	        1.6931673848	       -0.0207266968	        0.1403524255	       -0.1085211930	
        1.3000000000	       89.4655084109	       84.9475336238	       21.4200791564	      -36.0290218318	      418.7969130482	       83.5005217426	      -34.2696560427	      -62.5256131245	       36.3211741224	        2.2703471269	      -13.3550727939	       23.1758554515	        0.3362003569	       66.3509082415	      -19.0242765231	       12.4102490045	       28.5529703747	        5.1376365244	       -1.3029097938	        0.2830653802	       75.6476559469	      -47.3868524737	        3.2358334738	       -4.3114954274	        1.6329071704	        1.4552865824	        3.1087427008	       -0.0078061456	        0.2113303179	       -0.2050072089	       -6.4746000860	        0.0482602449	        0.5344006454	        2.3736422703	       -0.0503052083	        0.1006938693	       -0.1839902928	
        1.3050000000	       79.7441570082	       85.7777834934	       35.4950334826	      -16.7584781495	      298.1515884962	        0.6515911604	      -51.7383598244	      -63.7576827928	       42.2192066583	        3.4419687519	      -33.3279180543	       28.4829915537	        0.3650969921	       71.0080000010	      -15.2006958619	       11.2989860349	       28.4333758943	        5.2006065907	       -1.2803189851	        0.2895336522	       76.6100792851	      -44.4646204432	        8.0873932427	       -2.7781535897	        2.0131025389	        1.7650018280	        3.5557103397	       -0.0056232364	        0.2579027918	       -0.2394485348	       -5.9327693254	       -0.1523103638	        0.0835666689	        2.7773290730	       -0.0726630812	        0.0561116403	       -0.2351682204	
        1.3100000000	       46.6506322075	       54.4733725459	       45.4197910636	       16.6240568908	      115.7737078185	      -55.4717454928	      -90.0869242278	      -54.6995848423	       43.5041117365	       -0.6007453979	      -52.9507647238	       33.3125097374	        0.3588018410	       74.9936304338	      -12.4502762461	       10.0902270035	       28.8344564206	        5.0904553011	       -1.2211300486	        0.2813830349	       66.0969972487	      -33.9017326148	       12.2619202165	       -1.0997780362	        1.9188400803	        1.7898001021	        3.6293106961	       -0.0047020404	        0.2712171357	       -0.2476679174	       -4.9267079638	       -0.0115299675	       -0.2289020272	        2.8624638051	       -0.0844904872	        0.0163840543	       -0.2555746313	
